<svg width="57" height="40" viewBox="0 0 57 40" fill="none" xmlns="http://www.w3.org/2000/svg">
<path opacity="0.5" d="M2.445 3.69V15H1.035V3.69H2.445ZM21.6973 12.165H16.5073L15.2173 15H13.7023L19.1023 3.21L24.5023 15H22.9873L21.6973 12.165ZM21.1123 10.875L19.1023 6.3L17.0923 10.875H21.1123ZM33.7591 15.24L30.3691 7.53H30.3391L29.0191 15H27.5641L29.8741 3.21L33.7591 12.12L37.6441 3.21L39.9541 15H38.4991L37.1791 7.53H37.1491L33.7591 15.24Z" fill="white"/>
<path d="M9.315 24.215V25.85C8.505 25.13 7.395 24.74 6.33 24.74C3.795 24.74 1.86 26.855 1.86 29.36C1.86 31.835 3.78 33.95 6.3 33.95C7.41 33.95 8.475 33.53 9.315 32.78V34.445C8.445 34.955 7.335 35.24 6.345 35.24C3.12 35.24 0.45 32.675 0.45 29.405C0.45 26.06 3.135 23.45 6.465 23.45C7.455 23.45 8.46 23.69 9.315 24.215ZM16.517 30.08L12.827 23.69H14.447L17.222 28.52L19.997 23.69H21.617L17.927 30.08V35H16.517V30.08ZM29.0606 30.08L32.6306 35H30.9206L27.5906 30.215H27.0056V35H25.5956V23.69H27.3056C28.3106 23.69 29.3906 23.705 30.2906 24.215C31.2356 24.77 31.7756 25.835 31.7756 26.915C31.7756 28.535 30.6956 29.885 29.0606 30.08ZM27.0056 24.95V29.045H27.4556C28.8956 29.045 30.4556 28.775 30.4556 26.975C30.4556 25.205 28.7756 24.95 27.3806 24.95H27.0056ZM36.5452 23.69H37.9552V30.365C37.9552 32.21 38.5102 33.92 40.6852 33.92C42.8602 33.92 43.4152 32.21 43.4152 30.365V23.69H44.8252V30.845C44.8252 33.335 43.2802 35.24 40.6852 35.24C38.0902 35.24 36.5452 33.335 36.5452 30.845V23.69ZM55.9243 25.16L54.7993 25.835C54.3793 25.13 53.8393 24.77 52.9843 24.77C52.0843 24.77 51.0943 25.385 51.0943 26.375C51.0943 27.26 51.9643 27.725 52.6693 27.995L53.4793 28.31C55.0843 28.94 56.2843 29.825 56.2843 31.715C56.2843 33.77 54.6943 35.24 52.6693 35.24C50.8393 35.24 49.4143 33.89 49.1743 32.075L50.5993 31.775C50.5843 33.02 51.5743 33.92 52.7893 33.92C54.0043 33.92 54.8743 32.9 54.8743 31.715C54.8743 30.5 53.8993 29.975 52.9243 29.57L52.1443 29.24C50.8543 28.685 49.6843 27.95 49.6843 26.375C49.6843 24.545 51.3043 23.45 53.0143 23.45C54.2743 23.45 55.3093 24.065 55.9243 25.16Z" fill="white"/>
</svg>
